<svg xmlns="http://www.w3.org/2000/svg" viewBox="0 0 1200 520" role="img" aria-label="Comparacion biodegradable y reciclable">
  <rect width="1200" height="520" fill="#f6efe3"/>
  <rect x="72" y="64" width="492" height="392" rx="36" fill="#d9c3a1"/>
  <rect x="636" y="64" width="492" height="392" rx="36" fill="#fbf8f2"/>
  <path d="M210 290c70 42 152 42 224 0M434 290l-44-16 18 42" fill="none" stroke="#5d4228" stroke-width="22" stroke-linecap="round" stroke-linejoin="round"/>
  <path d="M254 292c26 76 100 98 152 24" fill="none" stroke="#5d4228" stroke-width="18" stroke-linecap="round"/>
  <path d="M792 176c76-42 162 6 176 90M968 266l-28-38 48 6M970 344c-76 42-162-6-176-90M794 254l28 38-48-6" fill="none" stroke="#8b6f47" stroke-width="22" stroke-linecap="round" stroke-linejoin="round"/>
  <text x="318" y="404" text-anchor="middle" font-family="Arial, sans-serif" font-size="34" fill="#5d4228">Biodegradable</text>
  <text x="882" y="404" text-anchor="middle" font-family="Arial, sans-serif" font-size="34" fill="#5d4228">Reciclable</text>
</svg>
